<?xml version="1.0" standalone="no"?>
<!DOCTYPE svg PUBLIC "-//W3C//DTD SVG 20010904//EN"
 "http://www.w3.org/TR/2001/REC-SVG-20010904/DTD/svg10.dtd">
<svg version="1.0" xmlns="http://www.w3.org/2000/svg"
 width="640.000000pt" height="1280.000000pt" viewBox="0 0 640.000000 1280.000000"
 preserveAspectRatio="xMidYMid meet">
<metadata>
Created by potrace 1.15, written by Peter Selinger 2001-2017
</metadata>
<g transform="translate(0.000000,1280.000000) scale(0.100000,-0.100000)"
fill="#000000" stroke="none">
<path d="M3019 12763 c0 -21 1 -137 3 -258 6 -402 2 -450 -45 -575 -16 -43
-39 -73 -101 -135 -123 -121 -120 -113 -123 -415 -2 -290 6 -341 60 -395 18
-18 37 -34 43 -36 13 -5 4 -225 -36 -849 -55 -870 -94 -1410 -102 -1410 -4 0
-23 14 -41 30 -19 17 -38 30 -42 30 -4 0 -4 -22 -1 -50 3 -27 9 -73 12 -100 4
-38 15 -61 41 -93 l36 -42 -7 -150 c-7 -140 -29 -445 -41 -560 -3 -27 -17
-158 -30 -290 -36 -337 -107 -894 -171 -1340 -30 -209 -57 -399 -61 -422 -6
-42 -6 -43 -45 -43 -33 0 -52 -9 -107 -52 -36 -28 -70 -55 -75 -60 -6 -4 -3
-15 7 -26 25 -28 48 -89 67 -182 l17 -85 57 -3 c31 -2 56 -7 56 -13 0 -5 -31
-119 -69 -252 -39 -133 -156 -546 -261 -917 -105 -371 -200 -705 -211 -742
l-20 -68 -152 0 -153 0 -11 -122 c-13 -140 -24 -178 -51 -178 -18 0 -17 -11
20 -193 l38 -192 -316 -625 c-173 -344 -464 -918 -645 -1276 -181 -358 -329
-656 -329 -663 0 -8 161 -11 603 -11 l604 0 7 131 c13 273 77 575 171 817 261
666 724 1040 1377 1111 477 53 890 -85 1213 -404 298 -295 523 -731 649 -1260
20 -82 41 -176 47 -208 l10 -57 631 0 c614 0 630 0 625 19 -13 51 -1244 2215
-1390 2444 -44 70 -49 82 -44 120 3 23 26 82 51 130 l45 88 -24 9 c-43 16 -82
124 -93 262 l-7 83 -125 15 -125 15 -68 215 c-38 118 -167 528 -288 910 -121
382 -228 721 -239 753 l-19 57 40 20 c26 14 44 32 54 58 25 59 55 154 62 195
5 35 2 41 -39 81 -25 24 -90 71 -145 105 l-100 63 -16 76 c-52 247 -131 1011
-241 2317 l-23 270 48 57 49 56 0 77 0 77 -37 -7 c-21 -4 -50 -9 -65 -12 -25
-5 -28 -3 -28 24 0 16 -9 186 -20 378 -51 907 -76 1563 -67 1772 5 107 10 140
27 174 12 22 28 73 36 112 19 92 32 344 22 421 -13 92 -57 175 -138 261 -129
136 -150 211 -175 645 -19 319 -21 330 -46 330 -15 0 -19 -8 -20 -37z m71
-745 c28 -93 48 -127 132 -215 118 -126 145 -209 134 -413 -9 -172 -23 -253
-57 -338 l-29 -74 0 -286 c0 -284 16 -716 45 -1257 21 -389 46 -809 48 -812 3
-2 81 14 110 23 14 4 17 -1 17 -34 0 -33 -8 -48 -51 -98 l-52 -58 7 -96 c10
-138 92 -1080 121 -1385 60 -622 124 -1130 154 -1206 6 -18 52 -55 140 -113
148 -98 154 -107 126 -194 -36 -116 -51 -140 -100 -164 -39 -19 -45 -26 -40
-45 4 -18 368 -1170 571 -1809 l54 -172 120 -13 c66 -7 120 -16 120 -20 0 -4
5 -42 11 -84 14 -101 43 -195 70 -224 l21 -22 -37 -82 c-48 -104 -52 -168 -14
-218 60 -79 390 -652 1006 -1744 l383 -680 -572 -3 c-429 -2 -574 1 -579 10
-4 6 -10 32 -14 57 -10 72 -80 335 -118 446 -147 429 -346 768 -589 1001 -239
230 -489 354 -813 405 -103 16 -372 13 -500 -6 -277 -40 -531 -140 -730 -287
-102 -75 -290 -269 -365 -376 -227 -324 -388 -792 -415 -1207 -3 -50 -8 -109
-11 -132 l-5 -43 -545 0 c-299 0 -544 3 -544 6 0 4 89 183 199 398 109 215
326 643 481 951 155 308 351 695 435 860 l153 300 -35 173 c-31 154 -33 176
-20 190 23 25 37 87 44 189 l6 92 151 3 150 3 22 75 c69 232 564 1988 564
1998 0 8 -21 12 -68 12 l-67 0 -13 67 c-7 37 -22 87 -32 111 -11 25 -20 48
-20 53 0 5 23 27 51 49 43 34 58 40 98 40 l48 0 32 213 c143 951 252 1903 281
2455 l10 193 -40 48 c-32 37 -40 55 -40 86 l0 39 35 -34 c25 -24 36 -29 39
-19 2 8 9 97 16 199 6 102 20 307 30 455 46 633 100 1533 100 1653 l0 72 -35
17 c-23 11 -42 31 -56 60 -19 39 -21 60 -20 230 0 104 0 220 -1 258 -2 91 18
129 111 217 82 77 126 157 144 263 6 36 12 65 13 65 1 0 12 -33 24 -72z"/>
<path d="M3000 11311 l-105 -6 45 -19 c57 -23 123 -24 228 -1 149 32 101 40
-168 26z"/>
<path d="M3055 8614 c-86 -18 -215 -68 -203 -78 1 -2 48 5 103 15 127 23 172
23 267 0 43 -10 75 -14 72 -9 -9 14 -86 50 -139 64 -51 14 -64 15 -100 8z"/>
<path d="M3015 5614 c-16 -2 -73 -9 -125 -15 -123 -13 -399 -59 -425 -70 -12
-5 5 -6 45 -3 36 3 185 16 332 28 l267 22 317 -28 c175 -15 320 -26 321 -24 4
4 -180 40 -282 55 -208 33 -365 44 -450 35z"/>
<path d="M2869 4733 l-86 -4 -7 -70 c-4 -39 -32 -220 -62 -402 -120 -734 -135
-829 -132 -839 2 -5 20 77 40 184 20 106 60 312 88 458 48 252 110 600 110
620 0 6 110 10 294 10 l293 0 12 -107 c58 -504 155 -1090 197 -1192 17 -41 17
-39 2 -38 -7 0 -227 -1 -488 -3 -520 -4 -450 -10 255 -24 l340 -7 -32 28 c-17
16 -37 42 -43 58 -32 81 -86 411 -150 905 -22 173 -44 340 -48 370 l-7 55
-245 1 c-135 0 -284 -1 -331 -3z"/>
<path d="M2950 2779 c-211 -8 -340 -20 -630 -55 -210 -26 -560 -81 -569 -89
-6 -7 1 -6 133 10 134 17 546 57 791 77 220 18 700 15 955 -6 302 -24 627 -55
778 -72 74 -9 136 -13 138 -11 6 6 -292 52 -531 82 -269 33 -490 53 -665 60
-80 3 -161 7 -180 9 -19 1 -118 -1 -220 -5z"/>
</g>
</svg>
